<mxfile host="app.diagrams.net" agent="Mozilla/5.0 (Windows NT 10.0; Win64; x64) AppleWebKit/537.36 (KHTML, like Gecko) Chrome/131.0.0.0 Safari/537.36" version="25.0.3">
  <diagram name="Page-1" id="mh5TE8xjFXt6lnArwRFl">
    <mxGraphModel dx="406" dy="263" grid="1" gridSize="10" guides="1" tooltips="1" connect="1" arrows="1" fold="1" page="1" pageScale="1" pageWidth="827" pageHeight="1169" math="0" shadow="0">
      <root>
        <mxCell id="0" />
        <mxCell id="1" parent="0" />
        <mxCell id="7SMq2916jZ5UGOuTQCkU-4" style="edgeStyle=orthogonalEdgeStyle;rounded=0;orthogonalLoop=1;jettySize=auto;html=1;exitX=0.5;exitY=0;exitDx=0;exitDy=0;entryX=0.5;entryY=0;entryDx=0;entryDy=0;curved=1;" parent="1" source="7SMq2916jZ5UGOuTQCkU-1" target="7SMq2916jZ5UGOuTQCkU-3" edge="1">
          <mxGeometry relative="1" as="geometry" />
        </mxCell>
        <mxCell id="7SMq2916jZ5UGOuTQCkU-10" style="edgeStyle=orthogonalEdgeStyle;rounded=0;orthogonalLoop=1;jettySize=auto;html=1;entryX=0.5;entryY=0;entryDx=0;entryDy=0;curved=1;exitX=0.5;exitY=0;exitDx=0;exitDy=0;" parent="1" source="7SMq2916jZ5UGOuTQCkU-2" target="7SMq2916jZ5UGOuTQCkU-1" edge="1">
          <mxGeometry relative="1" as="geometry">
            <mxPoint x="210" y="210" as="sourcePoint" />
          </mxGeometry>
        </mxCell>
        <mxCell id="7SMq2916jZ5UGOuTQCkU-1" value="ChipIn" style="ellipse;whiteSpace=wrap;html=1;aspect=fixed;" parent="1" vertex="1">
          <mxGeometry x="370" y="250" width="80" height="80" as="geometry" />
        </mxCell>
        <mxCell id="7SMq2916jZ5UGOuTQCkU-2" value="Users" style="whiteSpace=wrap;html=1;aspect=fixed;" parent="1" vertex="1">
          <mxGeometry x="190" y="250" width="80" height="80" as="geometry" />
        </mxCell>
        <mxCell id="7SMq2916jZ5UGOuTQCkU-3" value="Admin/&lt;div&gt;Superusers&lt;/div&gt;" style="whiteSpace=wrap;html=1;aspect=fixed;" parent="1" vertex="1">
          <mxGeometry x="560" y="250" width="80" height="80" as="geometry" />
        </mxCell>
        <mxCell id="7SMq2916jZ5UGOuTQCkU-7" style="edgeStyle=orthogonalEdgeStyle;rounded=0;orthogonalLoop=1;jettySize=auto;html=1;exitX=0.5;exitY=1;exitDx=0;exitDy=0;entryX=0.5;entryY=1;entryDx=0;entryDy=0;curved=1;" parent="1" source="7SMq2916jZ5UGOuTQCkU-3" target="7SMq2916jZ5UGOuTQCkU-1" edge="1">
          <mxGeometry relative="1" as="geometry">
            <mxPoint x="420" y="380" as="sourcePoint" />
            <mxPoint x="610" y="380" as="targetPoint" />
          </mxGeometry>
        </mxCell>
        <mxCell id="7SMq2916jZ5UGOuTQCkU-12" style="edgeStyle=orthogonalEdgeStyle;rounded=0;orthogonalLoop=1;jettySize=auto;html=1;exitX=0.5;exitY=1;exitDx=0;exitDy=0;entryX=0.5;entryY=1;entryDx=0;entryDy=0;curved=1;" parent="1" source="7SMq2916jZ5UGOuTQCkU-1" target="7SMq2916jZ5UGOuTQCkU-2" edge="1">
          <mxGeometry relative="1" as="geometry">
            <mxPoint x="430" y="390" as="sourcePoint" />
            <mxPoint x="250" y="390" as="targetPoint" />
          </mxGeometry>
        </mxCell>
        <mxCell id="7SMq2916jZ5UGOuTQCkU-13" value="Registration Data" style="text;html=1;align=center;verticalAlign=middle;resizable=0;points=[];autosize=1;strokeColor=none;fillColor=none;" parent="1" vertex="1">
          <mxGeometry x="250" y="198" width="120" height="30" as="geometry" />
        </mxCell>
        <mxCell id="7SMq2916jZ5UGOuTQCkU-14" value="&lt;span style=&quot;color: rgb(0, 0, 0); font-family: Helvetica; font-size: 12px; font-style: normal; font-variant-ligatures: normal; font-variant-caps: normal; font-weight: 400; letter-spacing: normal; orphans: 2; text-align: center; text-indent: 0px; text-transform: none; widows: 2; word-spacing: 0px; -webkit-text-stroke-width: 0px; white-space: nowrap; background-color: rgb(251, 251, 251); text-decoration-thickness: initial; text-decoration-style: initial; text-decoration-color: initial; display: inline !important; float: none;&quot;&gt;Registration Data&lt;/span&gt;" style="text;whiteSpace=wrap;html=1;" parent="1" vertex="1">
          <mxGeometry x="450" y="360" width="130" height="40" as="geometry" />
        </mxCell>
        <mxCell id="7SMq2916jZ5UGOuTQCkU-15" value="Registration Form" style="text;html=1;align=center;verticalAlign=middle;resizable=0;points=[];autosize=1;strokeColor=none;fillColor=none;" parent="1" vertex="1">
          <mxGeometry x="440" y="198" width="120" height="30" as="geometry" />
        </mxCell>
        <mxCell id="7SMq2916jZ5UGOuTQCkU-16" value="&lt;span style=&quot;color: rgb(0, 0, 0); font-family: Helvetica; font-size: 12px; font-style: normal; font-variant-ligatures: normal; font-variant-caps: normal; font-weight: 400; letter-spacing: normal; orphans: 2; text-align: center; text-indent: 0px; text-transform: none; widows: 2; word-spacing: 0px; -webkit-text-stroke-width: 0px; white-space: nowrap; background-color: rgb(251, 251, 251); text-decoration-thickness: initial; text-decoration-style: initial; text-decoration-color: initial; display: inline !important; float: none;&quot;&gt;Registration Form&lt;/span&gt;" style="text;whiteSpace=wrap;html=1;" parent="1" vertex="1">
          <mxGeometry x="250" y="360" width="130" height="40" as="geometry" />
        </mxCell>
        <mxCell id="7SMq2916jZ5UGOuTQCkU-46" style="edgeStyle=orthogonalEdgeStyle;rounded=0;orthogonalLoop=1;jettySize=auto;html=1;exitX=0.5;exitY=0;exitDx=0;exitDy=0;entryX=1;entryY=0.75;entryDx=0;entryDy=0;curved=1;" parent="1" source="7SMq2916jZ5UGOuTQCkU-19" target="7SMq2916jZ5UGOuTQCkU-29" edge="1">
          <mxGeometry relative="1" as="geometry" />
        </mxCell>
        <mxCell id="7SMq2916jZ5UGOuTQCkU-50" style="edgeStyle=orthogonalEdgeStyle;rounded=0;orthogonalLoop=1;jettySize=auto;html=1;exitX=0.5;exitY=1;exitDx=0;exitDy=0;entryX=1;entryY=0.5;entryDx=0;entryDy=0;curved=1;" parent="1" source="7SMq2916jZ5UGOuTQCkU-19" target="7SMq2916jZ5UGOuTQCkU-30" edge="1">
          <mxGeometry relative="1" as="geometry" />
        </mxCell>
        <mxCell id="7SMq2916jZ5UGOuTQCkU-19" value="ChipIn" style="ellipse;whiteSpace=wrap;html=1;aspect=fixed;" parent="1" vertex="1">
          <mxGeometry x="350" y="880" width="80" height="80" as="geometry" />
        </mxCell>
        <mxCell id="7SMq2916jZ5UGOuTQCkU-32" style="edgeStyle=orthogonalEdgeStyle;rounded=0;orthogonalLoop=1;jettySize=auto;html=1;exitX=0.5;exitY=0;exitDx=0;exitDy=0;entryX=0.5;entryY=0;entryDx=0;entryDy=0;curved=1;" parent="1" source="7SMq2916jZ5UGOuTQCkU-28" target="7SMq2916jZ5UGOuTQCkU-31" edge="1">
          <mxGeometry relative="1" as="geometry" />
        </mxCell>
        <mxCell id="7SMq2916jZ5UGOuTQCkU-36" style="edgeStyle=orthogonalEdgeStyle;rounded=0;orthogonalLoop=1;jettySize=auto;html=1;exitX=0;exitY=0.5;exitDx=0;exitDy=0;entryX=0.5;entryY=0;entryDx=0;entryDy=0;curved=1;" parent="1" source="7SMq2916jZ5UGOuTQCkU-28" target="7SMq2916jZ5UGOuTQCkU-29" edge="1">
          <mxGeometry relative="1" as="geometry" />
        </mxCell>
        <mxCell id="7SMq2916jZ5UGOuTQCkU-28" value="Users" style="ellipse;whiteSpace=wrap;html=1;aspect=fixed;" parent="1" vertex="1">
          <mxGeometry x="350" y="680" width="80" height="80" as="geometry" />
        </mxCell>
        <mxCell id="7SMq2916jZ5UGOuTQCkU-38" style="edgeStyle=orthogonalEdgeStyle;rounded=0;orthogonalLoop=1;jettySize=auto;html=1;exitX=1;exitY=0.5;exitDx=0;exitDy=0;entryX=0;entryY=1;entryDx=0;entryDy=0;curved=1;" parent="1" source="7SMq2916jZ5UGOuTQCkU-29" target="7SMq2916jZ5UGOuTQCkU-28" edge="1">
          <mxGeometry relative="1" as="geometry" />
        </mxCell>
        <mxCell id="7SMq2916jZ5UGOuTQCkU-45" style="edgeStyle=orthogonalEdgeStyle;rounded=0;orthogonalLoop=1;jettySize=auto;html=1;exitX=0.5;exitY=1;exitDx=0;exitDy=0;entryX=0;entryY=0.5;entryDx=0;entryDy=0;curved=1;" parent="1" source="7SMq2916jZ5UGOuTQCkU-29" target="7SMq2916jZ5UGOuTQCkU-19" edge="1">
          <mxGeometry relative="1" as="geometry" />
        </mxCell>
        <mxCell id="7SMq2916jZ5UGOuTQCkU-29" value="Users" style="whiteSpace=wrap;html=1;aspect=fixed;" parent="1" vertex="1">
          <mxGeometry x="180" y="750" width="80" height="80" as="geometry" />
        </mxCell>
        <mxCell id="7SMq2916jZ5UGOuTQCkU-49" style="edgeStyle=orthogonalEdgeStyle;rounded=0;orthogonalLoop=1;jettySize=auto;html=1;exitX=0.75;exitY=1;exitDx=0;exitDy=0;entryX=1;entryY=0.5;entryDx=0;entryDy=0;curved=1;" parent="1" source="7SMq2916jZ5UGOuTQCkU-30" target="7SMq2916jZ5UGOuTQCkU-19" edge="1">
          <mxGeometry relative="1" as="geometry" />
        </mxCell>
        <mxCell id="7SMq2916jZ5UGOuTQCkU-30" value="Admin/&lt;div&gt;Superusers&lt;/div&gt;" style="whiteSpace=wrap;html=1;aspect=fixed;" parent="1" vertex="1">
          <mxGeometry x="590" y="770" width="80" height="80" as="geometry" />
        </mxCell>
        <mxCell id="7SMq2916jZ5UGOuTQCkU-33" style="edgeStyle=orthogonalEdgeStyle;rounded=0;orthogonalLoop=1;jettySize=auto;html=1;exitX=0.5;exitY=1;exitDx=0;exitDy=0;entryX=1;entryY=0;entryDx=0;entryDy=0;curved=1;" parent="1" source="7SMq2916jZ5UGOuTQCkU-31" target="7SMq2916jZ5UGOuTQCkU-28" edge="1">
          <mxGeometry relative="1" as="geometry" />
        </mxCell>
        <mxCell id="7SMq2916jZ5UGOuTQCkU-31" value="Django database" style="html=1;dashed=0;whiteSpace=wrap;shape=partialRectangle;right=0;" parent="1" vertex="1">
          <mxGeometry x="510" y="640" width="100" height="30" as="geometry" />
        </mxCell>
        <mxCell id="7SMq2916jZ5UGOuTQCkU-34" value="User data" style="text;html=1;align=center;verticalAlign=middle;resizable=0;points=[];autosize=1;strokeColor=none;fillColor=none;" parent="1" vertex="1">
          <mxGeometry x="430" y="680" width="80" height="30" as="geometry" />
        </mxCell>
        <mxCell id="7SMq2916jZ5UGOuTQCkU-35" value="User registration data" style="text;html=1;align=center;verticalAlign=middle;resizable=0;points=[];autosize=1;strokeColor=none;fillColor=none;" parent="1" vertex="1">
          <mxGeometry x="380" y="588" width="140" height="30" as="geometry" />
        </mxCell>
        <mxCell id="7SMq2916jZ5UGOuTQCkU-37" value="Registration Form" style="text;html=1;align=center;verticalAlign=middle;resizable=0;points=[];autosize=1;strokeColor=none;fillColor=none;" parent="1" vertex="1">
          <mxGeometry x="190" y="688" width="120" height="30" as="geometry" />
        </mxCell>
        <mxCell id="7SMq2916jZ5UGOuTQCkU-39" value="Completed Form" style="text;html=1;align=center;verticalAlign=middle;resizable=0;points=[];autosize=1;strokeColor=none;fillColor=none;" parent="1" vertex="1">
          <mxGeometry x="300" y="775" width="110" height="30" as="geometry" />
        </mxCell>
        <mxCell id="7SMq2916jZ5UGOuTQCkU-40" style="edgeStyle=orthogonalEdgeStyle;rounded=0;orthogonalLoop=1;jettySize=auto;html=1;entryX=0.5;entryY=0;entryDx=0;entryDy=0;curved=1;exitX=1;exitY=0.5;exitDx=0;exitDy=0;" parent="1" source="7SMq2916jZ5UGOuTQCkU-28" target="7SMq2916jZ5UGOuTQCkU-30" edge="1">
          <mxGeometry relative="1" as="geometry">
            <mxPoint x="600" y="700" as="sourcePoint" />
            <mxPoint x="460" y="785.5" as="targetPoint" />
          </mxGeometry>
        </mxCell>
        <mxCell id="7SMq2916jZ5UGOuTQCkU-41" style="edgeStyle=orthogonalEdgeStyle;rounded=0;orthogonalLoop=1;jettySize=auto;html=1;exitX=0.5;exitY=1;exitDx=0;exitDy=0;entryX=0.5;entryY=1;entryDx=0;entryDy=0;curved=1;" parent="1" source="7SMq2916jZ5UGOuTQCkU-30" target="7SMq2916jZ5UGOuTQCkU-28" edge="1">
          <mxGeometry relative="1" as="geometry">
            <mxPoint x="500" y="825.5" as="sourcePoint" />
            <mxPoint x="602" y="783.5" as="targetPoint" />
          </mxGeometry>
        </mxCell>
        <mxCell id="7SMq2916jZ5UGOuTQCkU-42" value="Registration Form" style="text;html=1;align=center;verticalAlign=middle;resizable=0;points=[];autosize=1;strokeColor=none;fillColor=none;" parent="1" vertex="1">
          <mxGeometry x="480" y="740" width="120" height="30" as="geometry" />
        </mxCell>
        <mxCell id="7SMq2916jZ5UGOuTQCkU-43" value="Completed Form" style="text;html=1;align=center;verticalAlign=middle;resizable=0;points=[];autosize=1;strokeColor=none;fillColor=none;" parent="1" vertex="1">
          <mxGeometry x="470" y="840" width="110" height="30" as="geometry" />
        </mxCell>
        <mxCell id="7SMq2916jZ5UGOuTQCkU-47" value="Comments, join and leave requests etc." style="text;html=1;align=center;verticalAlign=middle;resizable=0;points=[];autosize=1;strokeColor=none;fillColor=none;" parent="1" vertex="1">
          <mxGeometry x="115" y="930" width="230" height="30" as="geometry" />
        </mxCell>
        <mxCell id="7SMq2916jZ5UGOuTQCkU-48" value="Event details,&amp;nbsp;&lt;div&gt;financial obligations&lt;/div&gt;" style="text;html=1;align=center;verticalAlign=middle;resizable=0;points=[];autosize=1;strokeColor=none;fillColor=none;" parent="1" vertex="1">
          <mxGeometry x="245" y="830" width="130" height="40" as="geometry" />
        </mxCell>
        <mxCell id="7SMq2916jZ5UGOuTQCkU-51" value="Group and event creation&amp;nbsp;&lt;div&gt;Comments, join and leave requests etc.&lt;/div&gt;" style="text;html=1;align=center;verticalAlign=middle;resizable=0;points=[];autosize=1;strokeColor=none;fillColor=none;" parent="1" vertex="1">
          <mxGeometry x="440" y="910" width="230" height="40" as="geometry" />
        </mxCell>
        <mxCell id="7SMq2916jZ5UGOuTQCkU-52" value="Financial obligations" style="text;html=1;align=center;verticalAlign=middle;resizable=0;points=[];autosize=1;strokeColor=none;fillColor=none;" parent="1" vertex="1">
          <mxGeometry x="445" y="978" width="130" height="30" as="geometry" />
        </mxCell>
        <mxCell id="7SMq2916jZ5UGOuTQCkU-53" value="Level 1 Dfd" style="text;html=1;align=center;verticalAlign=middle;resizable=0;points=[];autosize=1;strokeColor=none;fillColor=none;" parent="1" vertex="1">
          <mxGeometry x="350" y="548" width="80" height="30" as="geometry" />
        </mxCell>
        <mxCell id="7SMq2916jZ5UGOuTQCkU-54" value="Level 0 dfd" style="text;html=1;align=center;verticalAlign=middle;resizable=0;points=[];autosize=1;strokeColor=none;fillColor=none;" parent="1" vertex="1">
          <mxGeometry x="330" y="138" width="80" height="30" as="geometry" />
        </mxCell>
        <mxCell id="2wG7VykAa7OX1IU5VSbJ-4" style="rounded=0;orthogonalLoop=1;jettySize=auto;html=1;exitX=0.25;exitY=1;exitDx=0;exitDy=0;entryX=0.5;entryY=0;entryDx=0;entryDy=0;" edge="1" parent="1" source="2wG7VykAa7OX1IU5VSbJ-1" target="2wG7VykAa7OX1IU5VSbJ-3">
          <mxGeometry relative="1" as="geometry" />
        </mxCell>
        <mxCell id="2wG7VykAa7OX1IU5VSbJ-5" style="rounded=0;orthogonalLoop=1;jettySize=auto;html=1;exitX=0.75;exitY=1;exitDx=0;exitDy=0;entryX=0.5;entryY=0;entryDx=0;entryDy=0;" edge="1" parent="1" source="2wG7VykAa7OX1IU5VSbJ-1" target="2wG7VykAa7OX1IU5VSbJ-2">
          <mxGeometry relative="1" as="geometry" />
        </mxCell>
        <mxCell id="2wG7VykAa7OX1IU5VSbJ-1" value="ssa_project" style="rounded=0;whiteSpace=wrap;html=1;" vertex="1" parent="1">
          <mxGeometry x="490" y="1320" width="120" height="60" as="geometry" />
        </mxCell>
        <mxCell id="2wG7VykAa7OX1IU5VSbJ-2" value="ChipIn" style="rounded=0;whiteSpace=wrap;html=1;" vertex="1" parent="1">
          <mxGeometry x="740" y="1400" width="120" height="60" as="geometry" />
        </mxCell>
        <mxCell id="2wG7VykAa7OX1IU5VSbJ-3" value="Users" style="rounded=0;whiteSpace=wrap;html=1;" vertex="1" parent="1">
          <mxGeometry x="220" y="1400" width="120" height="60" as="geometry" />
        </mxCell>
        <mxCell id="2wG7VykAa7OX1IU5VSbJ-6" style="rounded=0;orthogonalLoop=1;jettySize=auto;html=1;exitX=0.25;exitY=1;exitDx=0;exitDy=0;entryX=0.5;entryY=0;entryDx=0;entryDy=0;" edge="1" parent="1" target="2wG7VykAa7OX1IU5VSbJ-9">
          <mxGeometry relative="1" as="geometry">
            <mxPoint x="255" y="1460" as="sourcePoint" />
          </mxGeometry>
        </mxCell>
        <mxCell id="2wG7VykAa7OX1IU5VSbJ-7" style="rounded=0;orthogonalLoop=1;jettySize=auto;html=1;exitX=0.75;exitY=1;exitDx=0;exitDy=0;entryX=0.5;entryY=0;entryDx=0;entryDy=0;" edge="1" parent="1" target="2wG7VykAa7OX1IU5VSbJ-8">
          <mxGeometry relative="1" as="geometry">
            <mxPoint x="315" y="1460" as="sourcePoint" />
          </mxGeometry>
        </mxCell>
        <mxCell id="2wG7VykAa7OX1IU5VSbJ-8" value="Registration" style="rounded=0;whiteSpace=wrap;html=1;" vertex="1" parent="1">
          <mxGeometry x="360" y="1510" width="120" height="60" as="geometry" />
        </mxCell>
        <mxCell id="2wG7VykAa7OX1IU5VSbJ-9" value="Authentication" style="rounded=0;whiteSpace=wrap;html=1;" vertex="1" parent="1">
          <mxGeometry x="80" y="1510" width="120" height="60" as="geometry" />
        </mxCell>
        <mxCell id="2wG7VykAa7OX1IU5VSbJ-10" style="rounded=0;orthogonalLoop=1;jettySize=auto;html=1;exitX=0.25;exitY=1;exitDx=0;exitDy=0;entryX=0.5;entryY=0;entryDx=0;entryDy=0;" edge="1" parent="1" target="2wG7VykAa7OX1IU5VSbJ-13">
          <mxGeometry relative="1" as="geometry">
            <mxPoint x="385" y="1570" as="sourcePoint" />
          </mxGeometry>
        </mxCell>
        <mxCell id="2wG7VykAa7OX1IU5VSbJ-11" style="rounded=0;orthogonalLoop=1;jettySize=auto;html=1;exitX=0.75;exitY=1;exitDx=0;exitDy=0;entryX=0.5;entryY=0;entryDx=0;entryDy=0;" edge="1" parent="1" target="2wG7VykAa7OX1IU5VSbJ-12">
          <mxGeometry relative="1" as="geometry">
            <mxPoint x="445" y="1570" as="sourcePoint" />
          </mxGeometry>
        </mxCell>
        <mxCell id="2wG7VykAa7OX1IU5VSbJ-12" value="Registration" style="rounded=0;whiteSpace=wrap;html=1;" vertex="1" parent="1">
          <mxGeometry x="470" y="1620" width="120" height="60" as="geometry" />
        </mxCell>
        <mxCell id="2wG7VykAa7OX1IU5VSbJ-13" value="Form Validation" style="rounded=0;whiteSpace=wrap;html=1;" vertex="1" parent="1">
          <mxGeometry x="250" y="1620" width="120" height="60" as="geometry" />
        </mxCell>
        <mxCell id="2wG7VykAa7OX1IU5VSbJ-16" style="rounded=0;orthogonalLoop=1;jettySize=auto;html=1;exitX=1;exitY=0;exitDx=0;exitDy=0;" edge="1" parent="1" source="2wG7VykAa7OX1IU5VSbJ-14">
          <mxGeometry relative="1" as="geometry">
            <mxPoint x="140" y="1460" as="targetPoint" />
          </mxGeometry>
        </mxCell>
        <mxCell id="2wG7VykAa7OX1IU5VSbJ-14" value="" style="ellipse;whiteSpace=wrap;html=1;aspect=fixed;fillColor=#000000;" vertex="1" parent="1">
          <mxGeometry x="90" y="1475" width="20" height="20" as="geometry" />
        </mxCell>
        <mxCell id="2wG7VykAa7OX1IU5VSbJ-15" value="Valid Login" style="text;html=1;align=center;verticalAlign=middle;resizable=0;points=[];autosize=1;strokeColor=none;fillColor=none;" vertex="1" parent="1">
          <mxGeometry x="10" y="1470" width="80" height="30" as="geometry" />
        </mxCell>
        <mxCell id="2wG7VykAa7OX1IU5VSbJ-20" style="rounded=0;orthogonalLoop=1;jettySize=auto;html=1;exitX=1;exitY=0;exitDx=0;exitDy=0;" edge="1" parent="1" source="2wG7VykAa7OX1IU5VSbJ-18">
          <mxGeometry relative="1" as="geometry">
            <mxPoint x="320" y="1570" as="targetPoint" />
          </mxGeometry>
        </mxCell>
        <mxCell id="2wG7VykAa7OX1IU5VSbJ-18" value="" style="ellipse;whiteSpace=wrap;html=1;aspect=fixed;fillColor=#000000;" vertex="1" parent="1">
          <mxGeometry x="280" y="1590" width="20" height="20" as="geometry" />
        </mxCell>
        <mxCell id="2wG7VykAa7OX1IU5VSbJ-21" value="Valid Form" style="text;html=1;align=center;verticalAlign=middle;resizable=0;points=[];autosize=1;strokeColor=none;fillColor=none;" vertex="1" parent="1">
          <mxGeometry x="210" y="1568" width="80" height="30" as="geometry" />
        </mxCell>
      </root>
    </mxGraphModel>
  </diagram>
</mxfile>
